<svg width="65" height="65" viewBox="0 0 65 65" fill="none" xmlns="http://www.w3.org/2000/svg">
<g clip-path="url(#clip0_146_3093)">
<path d="M64.6517 24.2826C64.4096 24.0226 64.0607 23.8885 63.7055 23.8885H59.8065C58.232 17.373 54.5504 11.4686 49.3506 7.16219C43.7775 2.54706 36.7175 0.00380859 29.4693 0C29.3499 0 29.2294 0.0255176 29.1277 0.0881055C28.8534 0.25708 28.755 0.580811 28.8587 0.857568L32.3393 10.1463C32.4321 10.3943 32.669 10.5584 32.9337 10.5584C41.1644 10.5584 48.3763 16.0847 50.5995 23.8885H47.2517C46.8964 23.8885 46.5476 24.0226 46.3055 24.2826C45.8493 24.7726 45.8515 25.4909 46.2513 25.9707L54.5033 35.873C54.7445 36.1625 55.1019 36.3299 55.4787 36.3299C55.8555 36.3299 56.2127 36.1626 56.454 35.873L64.706 25.9707C65.1057 25.4909 65.1078 24.7726 64.6517 24.2826Z" fill="#507BE9"/>
<path d="M28.8184 29.834C36.5309 29.834 42.7832 23.5817 42.7832 15.8691C42.7832 8.15657 36.5309 1.9043 28.8184 1.9043C21.1058 1.9043 14.8535 8.15657 14.8535 15.8691C14.8535 23.5817 21.1058 29.834 28.8184 29.834Z" fill="#FFEE78"/>
<path d="M42.7832 15.8691C42.7832 8.15661 36.5309 1.9043 28.8184 1.9043V29.834C36.5309 29.834 42.7832 23.5817 42.7832 15.8691Z" fill="#FCD232"/>
<path d="M28.8184 31.7383C20.0681 31.7383 12.9492 24.6194 12.9492 15.8691C12.9492 7.1189 20.0681 0 28.8184 0C37.5686 0 44.6875 7.1189 44.6875 15.8691C44.6875 24.6194 37.5686 31.7383 28.8184 31.7383ZM28.8184 3.80859C22.1682 3.80859 16.7578 9.21896 16.7578 15.8691C16.7578 22.5193 22.1682 27.9297 28.8184 27.9297C35.4685 27.9297 40.8789 22.5193 40.8789 15.8691C40.8789 9.21896 35.4685 3.80859 28.8184 3.80859Z" fill="#FCD232"/>
<path d="M40.8789 15.8691C40.8789 22.5193 35.4685 27.9297 28.8184 27.9297V31.7383C37.5686 31.7383 44.6875 24.6194 44.6875 15.8691C44.6875 7.1189 37.5686 0 28.8184 0V3.80859C35.4685 3.80859 40.8789 9.21896 40.8789 15.8691Z" fill="#F7B90F"/>
<path d="M33.8965 19.043C33.8965 16.2429 31.6184 13.9648 28.8184 13.9648C28.1183 13.9648 27.5488 13.3953 27.5488 12.6953C27.5488 11.9953 28.1183 11.4258 28.8184 11.4258C29.4196 11.4258 29.9427 11.8521 30.062 12.4395C30.2712 13.4701 31.2771 14.136 32.3073 13.9268C33.3379 13.7174 34.0038 12.7122 33.7945 11.6815C33.4491 9.9808 32.2616 8.61732 30.7227 7.99068V7.61719C30.7227 6.56551 29.87 5.71289 28.8184 5.71289C27.7667 5.71289 26.9141 6.56551 26.9141 7.61719V7.98903C25.0551 8.74402 23.7402 10.5685 23.7402 12.6953C23.7402 15.4954 26.0183 17.7734 28.8184 17.7734C29.5184 17.7734 30.0879 18.3429 30.0879 19.043C30.0879 19.743 29.5184 20.3125 28.8184 20.3125C28.2171 20.3125 27.6941 19.8862 27.5747 19.2988C27.3655 18.2682 26.3604 17.6026 25.3294 17.8115C24.2987 18.0209 23.633 19.0261 23.8422 20.0568C24.1876 21.7575 25.3751 23.1211 26.9139 23.7477V24.1211C26.9139 25.1728 27.7666 26.0254 28.8182 26.0254C29.8699 26.0254 30.7225 25.1728 30.7225 24.1211V23.7492C32.5816 22.9943 33.8965 21.1697 33.8965 19.043Z" fill="#FCD232"/>
<path d="M28.8184 13.9648V17.7734C29.5184 17.7734 30.0879 18.3429 30.0879 19.043C30.0879 19.743 29.5184 20.3125 28.8184 20.3125V26.0254C29.87 26.0254 30.7227 25.1728 30.7227 24.1211V23.7492C32.5816 22.9943 33.8965 21.1698 33.8965 19.043C33.8965 16.2429 31.6184 13.9648 28.8184 13.9648Z" fill="#F7B90F"/>
<path d="M30.062 12.4395C30.2712 13.4701 31.2771 14.136 32.3073 13.9268C33.3379 13.7174 34.0038 12.7122 33.7945 11.6815C33.4491 9.9808 32.2616 8.61732 30.7227 7.99068V7.61719C30.7227 6.56551 29.87 5.71289 28.8184 5.71289V11.4258C29.4196 11.4258 29.9427 11.8521 30.062 12.4395Z" fill="#F7B90F"/>
<path d="M64.196 44.5536C62.7885 42.5434 60.0178 42.0549 58.0077 43.4624L44.3864 53.0002C43.8528 53.3738 43.2173 53.5741 42.566 53.5741H32.5V62.4609H43.3664C45.3205 62.4609 47.2271 61.8597 48.8277 60.7389L63.1047 50.7419C65.115 49.3344 65.6037 46.5638 64.196 44.5536Z" fill="#FABE8C"/>
<path d="M44.3864 53.0005C43.8528 53.3741 43.2173 53.5744 42.566 53.5744L32.5 52.7939V57.383H42.7832C47.3333 57.383 51.0352 53.6812 51.0352 49.1311C51.0352 48.8745 51.0217 48.6211 50.9987 48.3705L44.3864 53.0005Z" fill="#E6A578"/>
<path d="M64.196 44.5537C62.7885 42.5435 60.0178 42.055 58.0077 43.4625L46.5518 51.4841C46.9789 50.8014 47.2266 49.9953 47.2266 49.1309C47.2266 46.6769 45.2372 44.6875 42.7832 44.6875H31.9922L30.7501 43.7559C28.2764 41.9006 25.2112 40.8789 22.119 40.8789C19.5123 40.8789 16.9532 41.5877 14.7181 42.9288C14.7181 42.9288 12.6004 44.1995 11.3345 44.9589C10.7609 45.3031 10.4102 45.9229 10.4102 46.5918V60.5566C10.4102 61.6083 11.2628 62.4609 12.3145 62.4609H43.3664C45.3205 62.4609 47.2271 61.8598 48.8277 60.7389L63.1047 50.742C65.115 49.3345 65.6037 46.5639 64.196 44.5537Z" fill="#FFD2AA"/>
<path d="M32.5 62.4609H43.3664C45.3205 62.4609 47.2271 61.8597 48.8277 60.7389L63.1047 50.7419C65.1149 49.3344 65.6034 46.5638 64.1959 44.5536C62.7883 42.5434 60.0177 42.0549 58.0075 43.4624L46.5517 51.484C46.9789 50.8014 47.2266 49.9952 47.2266 49.1308C47.2266 46.6768 45.2372 44.6874 42.7832 44.6874H32.5V62.4609Z" fill="#FABE8C"/>
<path d="M50.9987 48.3705L46.5518 51.4843C46.5243 51.5283 46.4967 51.5725 46.4676 51.6154C45.6692 52.7973 44.3169 53.5744 42.7832 53.5744H29.4531C28.4014 53.5744 27.5488 54.427 27.5488 55.4787C27.5488 56.5304 28.4014 57.383 29.4531 57.383H42.7832C47.3333 57.383 51.0352 53.6812 51.0352 49.1311C51.0352 48.8745 51.0217 48.6211 50.9987 48.3705Z" fill="#FABE8C"/>
<path d="M12.3145 65H1.9043C0.852617 65 0 64.1474 0 63.0957V41.5137C0 40.462 0.852617 39.6094 1.9043 39.6094H12.3145C13.3661 39.6094 14.2188 40.462 14.2188 41.5137V63.0957C14.2188 64.1474 13.3661 65 12.3145 65Z" fill="#6496F7"/>
<path d="M50.9987 48.3705L46.5518 51.4843C46.5243 51.5283 46.4967 51.5725 46.4676 51.6154C45.6692 52.7973 44.3169 53.5744 42.7832 53.5744H32.5V57.383H42.7832C47.3333 57.383 51.0352 53.6812 51.0352 49.1311C51.0352 48.8745 51.0217 48.6211 50.9987 48.3705Z" fill="#E6A578"/>
</g>
<defs>
<clipPath id="clip0_146_3093">
<rect width="65" height="65" fill="white"/>
</clipPath>
</defs>
</svg>
