<svg width="65" height="65" viewBox="0 0 65 65" fill="none" xmlns="http://www.w3.org/2000/svg">
<g clip-path="url(#clip0_146_3034)">
<path d="M15.917 36.5373V47.1666H53.2749C54.3422 47.1666 55.2075 46.3013 55.2075 45.234C55.2075 44.2956 55.2075 37.4738 55.2075 36.5373L35.5622 33.9603L15.917 36.5373Z" fill="#8B9BA9"/>
<path d="M51.3422 36.022V43.3015H15.917V47.1667H53.2749C54.3422 47.1667 55.2075 46.3014 55.2075 45.2341C55.2075 44.3448 55.2075 37.4096 55.2075 36.5373L51.3422 36.022Z" fill="#6C7A88"/>
<path d="M56.9474 11.0692H21.7157C20.6484 11.0692 19.7831 11.9345 19.7831 13.0018V19.0245H6.89457C5.08668 19.0245 3.52024 20.2778 3.12354 22.0417L1.66081 28.5463C1.28511 30.2171 1.09546 31.9245 1.09546 33.637V47.1664H19.7831C19.7831 46.8519 19.7831 42.072 19.7831 36.5371H56.9475C58.0148 36.5371 58.8801 35.6718 58.8801 34.6045V13.0018C58.88 11.9344 58.0149 11.0692 56.9474 11.0692Z" fill="#FF7E40"/>
<path d="M64.034 28.2375H58.8801V24.7695H61.4571C61.9909 24.7695 62.4234 24.3368 62.4234 23.8032C62.4234 23.2695 61.9909 22.8369 61.4571 22.8369H58.8801V19.3689H62.7455C63.2793 19.3689 63.7118 18.9362 63.7118 18.4026C63.7118 17.8689 63.2793 17.4363 62.7455 17.4363H58.8801V13.9681H64.034C64.5678 13.9681 65.0003 13.5355 65.0003 13.0018C65.0003 12.4682 64.5678 12.0355 64.034 12.0355H58.6195C58.2852 11.4584 57.6625 11.0692 56.9475 11.0692H55.0149V32.672H19.7831C19.7831 25.8735 19.7831 19.2079 19.7831 19.0243H15.9179V36.5372H13.019C10.2018 36.5372 7.63901 37.641 5.735 39.4361H1.09546V47.1666H19.7831C19.7831 46.9044 19.7831 42.1025 19.7831 36.5372H31.6949H56.9475C57.6625 36.5372 58.2852 36.148 58.6195 35.5709H62.7455C63.2793 35.5709 63.7118 35.1383 63.7118 34.6046C63.7118 34.071 63.2793 33.6383 62.7455 33.6383H58.8801V30.1702H64.034C64.5678 30.1702 65.0003 29.7376 65.0003 29.2039C65.0003 28.6702 64.5678 28.2375 64.034 28.2375Z" fill="#FF6344"/>
<path d="M0.966303 47.1664H8.03913V43.3011H0.966303C0.432646 43.3011 0 43.7338 0 44.2675V46.2001C0 46.7338 0.432646 47.1664 0.966303 47.1664Z" fill="#8B9BA9"/>
<path d="M15.9179 22.8895H6.66405L4.82666 31.0602H15.9179V22.8895Z" fill="#9DC6FB"/>
<path d="M12.2832 27.195H5.69582L4.82666 31.0602H15.9179V22.8895H12.2832V27.195Z" fill="#80B4FB"/>
<path d="M45.8667 53.9305C49.6024 53.9305 52.6308 50.9021 52.6308 47.1663C52.6308 43.4306 49.6024 40.4022 45.8667 40.4022C42.1309 40.4022 39.1025 43.4306 39.1025 47.1663C39.1025 50.9021 42.1309 53.9305 45.8667 53.9305Z" fill="#4D5967"/>
<path d="M47.2499 40.5449C46.4571 42.0097 46.6788 43.8784 47.917 45.1164L43.8173 49.2162C42.5792 47.978 40.7105 47.7561 39.2456 48.5491C39.8857 51.6177 42.6112 53.9304 45.8671 53.9304C49.5969 53.9304 52.6312 50.8961 52.6312 47.1663C52.6311 43.9104 50.3185 41.185 47.2499 40.5449Z" fill="#35404A"/>
<path d="M45.8664 50.0654C47.4675 50.0654 48.7654 48.7675 48.7654 47.1665C48.7654 45.5655 47.4675 44.2676 45.8664 44.2676C44.2654 44.2676 42.9675 45.5655 42.9675 47.1665C42.9675 48.7675 44.2654 50.0654 45.8664 50.0654Z" fill="#FFF9EB"/>
<path d="M13.0188 53.9305C16.7545 53.9305 19.7829 50.9021 19.7829 47.1663C19.7829 43.4306 16.7545 40.4022 13.0188 40.4022C9.28304 40.4022 6.25464 43.4306 6.25464 47.1663C6.25464 50.9021 9.28304 53.9305 13.0188 53.9305Z" fill="#4D5967"/>
<path d="M14.402 40.5449C13.6092 42.0097 13.8309 43.8784 15.069 45.1164L10.9693 49.2162C9.73132 47.978 7.86262 47.7561 6.39771 48.5491C7.03778 51.6177 9.76327 53.9304 13.0192 53.9304C16.749 53.9304 19.7833 50.8961 19.7833 47.1663C19.7833 43.9104 17.4708 41.185 14.402 40.5449Z" fill="#35404A"/>
<path d="M13.0185 50.0654C14.6196 50.0654 15.9175 48.7675 15.9175 47.1665C15.9175 45.5655 14.6196 44.2676 13.0185 44.2676C11.4175 44.2676 10.1196 45.5655 10.1196 47.1665C10.1196 48.7675 11.4175 50.0654 13.0185 50.0654Z" fill="#FFF9EB"/>
<path d="M29.5606 21.8712V22.8375H30.7845C31.3182 22.8375 31.7505 23.2699 31.7505 23.8037C31.7505 24.3374 31.3182 24.77 30.7845 24.77H29.5606V26.7023C29.5606 27.2361 29.128 27.6686 28.5945 27.6686C28.0609 27.6686 27.6284 27.2362 27.6284 26.7023V20.9051C27.6284 20.3715 28.0609 19.9391 28.5945 19.9391H31.5574C32.0911 19.9391 32.5235 20.3715 32.5235 20.9051C32.5235 21.4389 32.0911 21.8714 31.5574 21.8714H29.5606V21.8712Z" fill="#FFF9EB"/>
<path d="M38.7694 26.0216C39.1449 26.4004 39.1424 27.0123 38.7636 27.388C38.575 27.5747 38.3292 27.6681 38.0832 27.6681C37.8346 27.6681 37.586 27.5727 37.3971 27.3822L35.7645 25.7357H35.2491V26.7018C35.2491 27.2356 34.8165 27.6681 34.2829 27.6681C33.7494 27.6681 33.3169 27.2357 33.3169 26.7018V20.9046C33.3169 20.3709 33.7494 19.9385 34.2829 19.9385H36.1672C37.7565 19.9385 39.0495 21.2389 39.0495 22.8371C39.0495 23.7799 38.5992 24.6188 37.9036 25.1486L38.7694 26.0216ZM37.117 22.8371C37.117 22.3042 36.6908 21.8708 36.1672 21.8708H35.2491V23.8031H36.1672C36.6908 23.8031 37.117 23.3697 37.117 22.8371Z" fill="#FFF9EB"/>
<path d="M45.0383 26.7016C45.0383 27.2354 44.606 27.6679 44.0723 27.6679H41.1094C40.5758 27.6679 40.1433 27.2355 40.1433 26.7016V20.9044C40.1433 20.3707 40.5758 19.9384 41.1094 19.9384H44.0723C44.606 19.9384 45.0383 20.3707 45.0383 20.9044C45.0383 21.4382 44.606 21.8707 44.0723 21.8707H42.0755V22.837H43.2994C43.833 22.837 44.2654 23.2694 44.2654 23.8032C44.2654 24.337 43.833 24.7695 43.2994 24.7695H42.0755V25.7357H44.0723C44.606 25.7355 45.0383 26.1679 45.0383 26.7016Z" fill="#FFF9EB"/>
<path d="M51.0339 26.7016C51.0339 27.2354 50.6016 27.6679 50.0679 27.6679H47.105C46.5714 27.6679 46.1389 27.2355 46.1389 26.7016V20.9044C46.1389 20.3707 46.5714 19.9384 47.105 19.9384H50.0679C50.6016 19.9384 51.0339 20.3707 51.0339 20.9044C51.0339 21.4382 50.6016 21.8707 50.0679 21.8707H48.0711V22.837H49.295C49.8286 22.837 50.261 23.2694 50.261 23.8032C50.261 24.337 49.8286 24.7695 49.295 24.7695H48.0711V25.7357H50.0679C50.6016 25.7355 51.0339 26.1679 51.0339 26.7016Z" fill="#FFF9EB"/>
</g>
<defs>
<clipPath id="clip0_146_3034">
<rect width="65" height="65" fill="white"/>
</clipPath>
</defs>
</svg>
