<svg width="177" height="32" viewBox="0 0 177 32" fill="none" xmlns="http://www.w3.org/2000/svg">
<path fill-rule="evenodd" clip-rule="evenodd" d="M20.8808 7.15137L11.8302 16.0131L7.34373 11.6204L17.8766 1.20552C19.4969 -0.396339 22.1388 -0.40269 23.7673 1.19166L34.3774 11.5808L29.8909 15.9739L20.8808 7.15137ZM40.469 17.4952L38.9151 15.9736L29.8648 24.8354L20.8662 15.9736L20.8402 15.999L20.8146 15.9736L11.8156 24.8354L2.76537 15.9736L1.217 17.4897C-0.405666 19.0786 -0.405666 21.6547 1.217 23.2436L8.93055 30.8334C10.5087 32.3862 13.0745 32.3891 14.6562 30.8404L20.8402 24.7851L27.0072 30.8233C28.5856 32.3692 31.1446 32.3698 32.7239 30.8248L40.4746 23.2436C42.0923 21.6539 42.0896 19.082 40.469 17.4952Z" fill="url(#paint0_linear_8646_27506)"/>
<path fill-rule="evenodd" clip-rule="evenodd" d="M130.178 18.301C130.852 17.6662 131.189 16.9041 131.189 16.0152C131.189 15.1264 130.852 14.3643 130.178 13.7549C129.529 13.1201 128.725 12.815 127.766 12.815C126.832 12.815 126.054 13.1201 125.405 13.7549C124.757 14.3643 124.446 15.1264 124.446 16.0152C124.446 16.9041 124.757 17.6662 125.405 18.301C126.054 18.9104 126.832 19.2152 127.766 19.2152C128.725 19.2152 129.529 18.9104 130.178 18.301ZM130.957 11.2913V5.57379H134.822V22.4151H130.957V20.7391C130.568 21.8565 129.037 22.6437 127.066 22.6437C125.225 22.6437 123.668 22.0089 122.424 20.7391C121.205 19.4438 120.582 17.8691 120.582 16.0152C120.582 14.161 121.205 12.5866 122.424 11.3167C123.668 10.0214 125.225 9.38633 127.066 9.38633C129.037 9.38633 130.568 10.1738 130.957 11.2913Z" fill="#0D0E0C"/>
<path fill-rule="evenodd" clip-rule="evenodd" d="M146.953 14.5397C146.953 13.346 145.682 12.4064 144.126 12.4064C142.44 12.4064 141.065 13.346 140.962 14.5397H146.953ZM137.046 15.9877C137.046 13.9814 137.721 12.3559 139.043 11.1368C140.366 9.89235 142.078 9.28296 144.127 9.28296C146.124 9.28296 147.732 9.91776 148.977 11.1622C150.222 12.4067 150.845 13.9306 150.845 15.7845C150.845 16.2161 150.819 16.6225 150.793 17.0036H140.911C140.989 18.5275 142.338 19.5177 144.387 19.5177C145.606 19.5177 146.669 19.1115 147.576 18.2735L149.833 20.3814C148.303 21.9307 146.409 22.7179 144.205 22.7179C142.052 22.7179 140.34 22.1085 139.018 20.9148C137.694 19.6958 137.046 18.0956 137.046 16.0891V15.9877Z" fill="#0D0E0C"/>
<path fill-rule="evenodd" clip-rule="evenodd" d="M156.535 22.415L150.933 9.61481H154.849L158.273 17.7419L161.671 9.61481H165.587L159.985 22.415H156.535Z" fill="#0D0E0C"/>
<path fill-rule="evenodd" clip-rule="evenodd" d="M167.655 18.1475C168.381 18.9855 169.756 19.5444 171.235 19.5444C172.557 19.5444 173.206 19.1887 173.206 18.5028C173.206 18.2491 173.05 18.0458 172.765 17.8934C172.48 17.741 171.961 17.5635 171.183 17.3856C170.405 17.2078 169.808 17.03 169.419 16.903C167.422 16.2171 166.41 15.0491 166.41 13.3474C166.41 12.0521 166.903 11.0362 167.889 10.3252C168.874 9.5888 170.068 9.23315 171.494 9.23315C173.335 9.23315 174.814 9.79174 175.981 10.8838L174.14 13.3728C173.439 12.738 172.505 12.4331 171.39 12.4331C170.56 12.4331 170.093 12.7634 170.093 13.2457C170.093 13.576 170.223 13.7538 170.638 13.9316C171.131 14.1349 172.22 14.3124 173.673 14.8205C175.825 15.5315 176.889 16.7506 176.889 18.4523C176.889 21.068 174.969 22.7697 171.131 22.7697C168.589 22.7697 166.695 22.0079 165.425 20.484L167.655 18.1475Z" fill="#0D0E0C"/>
<path fill-rule="evenodd" clip-rule="evenodd" d="M95.7271 12.84C93.5224 12.84 92.2255 14.0588 92.2255 16.167V22.4145H88.3608V9.61435H92.2255V11.3669C92.8222 10.0716 94.2229 9.33521 96.0124 9.33521C96.2719 9.33521 96.6089 9.36061 97.024 9.41142V12.967C96.6348 12.8908 96.1938 12.84 95.7271 12.84ZM80.8687 18.3009C81.5429 17.6661 81.8802 16.904 81.8802 16.0152C81.8802 15.1264 81.5429 14.3643 80.8687 13.7549C80.2201 13.1201 79.4161 12.8149 78.4565 12.8149C77.5228 12.8149 76.7445 13.1201 76.0962 13.7549C75.4479 14.3643 75.1369 15.1264 75.1369 16.0152C75.1369 16.904 75.4479 17.6661 76.0962 18.3009C76.7445 18.9103 77.5228 19.2152 78.4565 19.2152C79.4161 19.2152 80.2201 18.9103 80.8687 18.3009ZM77.7576 9.38647C79.7288 9.38647 81.2592 10.174 81.648 11.2914V9.61511H85.5128V22.4153H81.648V20.7392C81.2592 21.8567 79.7288 22.6439 77.7576 22.6439C75.9159 22.6439 74.3596 22.0091 73.1149 20.7392C71.8958 19.4439 71.2732 17.8692 71.2732 16.0153C71.2732 14.1612 71.8958 12.5867 73.1149 11.3168C74.3596 10.0216 75.9159 9.38647 77.7576 9.38647ZM51.4902 9.61461L55.6141 22.4148H58.8305L61.113 15.1006L63.4214 22.4148H66.6116L70.7617 9.61461H67.1824L64.874 16.7512L62.6175 9.61461H59.6086L57.378 16.7512L55.0696 9.61461H51.4902ZM104.687 12.6876C103.441 12.6876 102.534 13.7288 102.534 15.2274V22.4145H98.6689V9.61435H102.534V11.2145C103.027 10.097 104.349 9.33521 105.931 9.33521C107.695 9.33521 108.888 10.0208 109.485 11.3669C110.211 10.0208 111.664 9.33521 113.842 9.33521C116.825 9.33521 118.485 11.3161 118.485 14.6431V22.4145H114.621V15.1003C114.621 13.6018 113.92 12.6876 112.675 12.6876C111.404 12.6876 110.497 13.7288 110.497 15.2274V22.4145H106.632V15.1003C106.632 13.6018 105.931 12.6876 104.687 12.6876Z" fill="url(#paint1_linear_8646_27506)"/>
<defs>
<linearGradient id="paint0_linear_8646_27506" x1="41.6862" y1="16" x2="5.92601e-07" y2="16" gradientUnits="userSpaceOnUse">
<stop stop-color="#F06218"/>
<stop offset="0.476743" stop-color="#FF9428"/>
<stop offset="1" stop-color="#FFCF54"/>
</linearGradient>
<linearGradient id="paint1_linear_8646_27506" x1="118.485" y1="15.9896" x2="51.4902" y2="15.9896" gradientUnits="userSpaceOnUse">
<stop stop-color="#F06218"/>
<stop offset="0.476743" stop-color="#FF9428"/>
<stop offset="1" stop-color="#FFCF54"/>
</linearGradient>
</defs>
</svg>
