<svg width="19" height="19" viewBox="0 0 19 19" fill="none" xmlns="http://www.w3.org/2000/svg">
<path d="M1.97925 3.36456C1.97925 3.20709 2.0418 3.05607 2.15315 2.94472C2.2645 2.83337 2.41553 2.77081 2.573 2.77081H3.01475C3.76683 2.77081 4.21808 3.27669 4.47537 3.74694C4.64716 4.06044 4.77146 4.42381 4.86883 4.75315C4.89517 4.75107 4.92158 4.75001 4.948 4.74998H14.8422C15.4993 4.74998 15.9743 5.37856 15.7938 6.0111L14.3467 11.0849C14.2169 11.54 13.9424 11.9404 13.5647 12.2255C13.187 12.5107 12.7267 12.665 12.2535 12.6651H7.54466C7.06768 12.6651 6.60389 12.5085 6.22458 12.2193C5.84527 11.93 5.57144 11.5243 5.44516 11.0643L4.8435 8.86981L3.846 5.50681L3.84521 5.50048C3.72171 5.0516 3.60612 4.63123 3.43354 4.31773C3.26808 4.01294 3.13508 3.95831 3.01554 3.95831H2.573C2.41553 3.95831 2.2645 3.89576 2.15315 3.78441C2.0418 3.67306 1.97925 3.52204 1.97925 3.36456ZM5.99537 8.58165L6.58992 10.75C6.70866 11.1791 7.09896 11.4776 7.54466 11.4776H12.2535C12.4686 11.4776 12.6778 11.4075 12.8495 11.2779C13.0212 11.1483 13.1461 10.9664 13.2051 10.7595L14.5802 5.93748H5.21321L5.98429 8.53969L5.99537 8.58165Z" fill="#2F1AC4"/>
<path d="M8.70842 15.0416C8.70842 15.4616 8.5416 15.8643 8.24467 16.1612C7.94773 16.4582 7.54501 16.625 7.12508 16.625C6.70516 16.625 6.30243 16.4582 6.0055 16.1612C5.70856 15.8643 5.54175 15.4616 5.54175 15.0416C5.54175 14.6217 5.70856 14.219 6.0055 13.9221C6.30243 13.6251 6.70516 13.4583 7.12508 13.4583C7.54501 13.4583 7.94773 13.6251 8.24467 13.9221C8.5416 14.219 8.70842 14.6217 8.70842 15.0416ZM7.52092 15.0416C7.52092 14.9367 7.47921 14.836 7.40498 14.7617C7.33075 14.6875 7.23006 14.6458 7.12508 14.6458C7.0201 14.6458 6.91942 14.6875 6.84518 14.7617C6.77095 14.836 6.72925 14.9367 6.72925 15.0416C6.72925 15.1466 6.77095 15.2473 6.84518 15.3215C6.91942 15.3958 7.0201 15.4375 7.12508 15.4375C7.23006 15.4375 7.33075 15.3958 7.40498 15.3215C7.47921 15.2473 7.52092 15.1466 7.52092 15.0416Z" fill="#2F1AC4"/>
<path d="M14.2502 15.0416C14.2502 15.4616 14.0833 15.8643 13.7864 16.1612C13.4895 16.4582 13.0868 16.625 12.6668 16.625C12.2469 16.625 11.8442 16.4582 11.5472 16.1612C11.2503 15.8643 11.0835 15.4616 11.0835 15.0416C11.0835 14.6217 11.2503 14.219 11.5472 13.9221C11.8442 13.6251 12.2469 13.4583 12.6668 13.4583C13.0868 13.4583 13.4895 13.6251 13.7864 13.9221C14.0833 14.219 14.2502 14.6217 14.2502 15.0416ZM13.0627 15.0416C13.0627 14.9367 13.021 14.836 12.9467 14.7617C12.8725 14.6875 12.7718 14.6458 12.6668 14.6458C12.5618 14.6458 12.4612 14.6875 12.3869 14.7617C12.3127 14.836 12.271 14.9367 12.271 15.0416C12.271 15.1466 12.3127 15.2473 12.3869 15.3215C12.4612 15.3958 12.5618 15.4375 12.6668 15.4375C12.7718 15.4375 12.8725 15.3958 12.9467 15.3215C13.021 15.2473 13.0627 15.1466 13.0627 15.0416Z" fill="#2F1AC4"/>
</svg>
